PathFileType	4	(X/Y/Z)	Patient5_TMGait_0pt45_1_right_04.trc.trc
DataRate	CameraRate	NumFrames	NumMarkers	Units	OrigDataRate	OrigDataStartFrame	OrigNumFrames
55.776892430279	55.776892430279	6	32	mm	55.776892430279	36	       141
Frame#	Time	R.ASIS			L.ASIS			Chest			R.Shoulder			Neck			L.Shoulder			L.Elbow			L.Wrist			R.Elbow			R.Wrist			L.Thigh.Superior			L.Thigh.Lateral			L.Thigh.Inferior			L.Patella			L.Shank.Superior			L.Shank.Lateral			L.Shank.Inferior			L.Heel			L.Midfoot.Lateral			L.Midfoot.Superior			L.Toe			R.Thigh.Superior			R.Thigh.Lateral			R.Thigh.Inferior			R.Patella			R.Shank.Superior			R.Shank.Lateral			R.Shank.Inferior			R.Heel			R.Midfoot.Lateral			R.Midfoot.Superior			R.Toe			
		X1	Y1	Z1	X2	Y2	Z2	X3	Y3	Z3	X4	Y4	Z4	X5	Y5	Z5	X6	Y6	Z6	X7	Y7	Z7	X8	Y8	Z8	X9	Y9	Z9	X10	Y10	Z10	X11	Y11	Z11	X12	Y12	Z12	X13	Y13	Z13	X14	Y14	Z14	X15	Y15	Z15	X16	Y16	Z16	X17	Y17	Z17	X18	Y18	Z18	X19	Y19	Z19	X20	Y20	Z20	X21	Y21	Z21	X22	Y22	Z22	X23	Y23	Z23	X24	Y24	Z24	X25	Y25	Z25	X26	Y26	Z26	X27	Y27	Z27	X28	Y28	Z28	X29	Y29	Z29	X30	Y30	Z30	X31	Y31	Z31	X32	Y32	Z32	

36	6.737500000000	949.680630183968	976.286883871279	583.084490531499	931.748955255381	960.014792361680	341.929997405821	981.948893542384	1440.749643284867	491.281267900966	880.854050589756	1492.228063233621	663.216819529931	845.831176703726	1554.774248830012	480.955640727915	912.153533190706	1510.054484854209	297.331509122414	823.194708205605	1200.761851052443	157.219819255353	908.376231411100	926.698334094640	134.404720139504	815.596775547279	1162.113696049775	786.700850553536	1033.853742379986	984.515807403161	715.208054002842	933.205542939239	733.629804077430	325.064905139921	849.374705523996	671.514799586693	284.341061604060	918.620783790215	603.245426701253	335.960431077592	890.460119089650	465.801789891734	328.477779592584	802.715473875375	387.934438448275	356.293223942862	703.804933300185	360.115018470693	287.549738509862	717.826707579653	294.621977279656	371.656871547380	493.310309796101	137.300413726986	383.026459894240	562.008020769082	77.948696687321	321.889032699672	675.904132701731	96.645960364161	353.788806648794	752.974355801357	42.684255433082	359.492041794939	981.320356748276	747.108672895961	606.295614558999	899.697174982586	661.107297930053	650.590313468420	989.797990099139	618.684847577540	581.876011599319	996.089249647704	519.274036032973	608.499611282204	960.572960174266	418.788008053049	563.454534333949	885.137449174958	345.899878956198	637.332199504424	946.479521229582	279.455467777344	556.162524441491	831.225970024019	53.240072038168	506.984079890691	902.834309083888	25.118804534548	587.379118037766	1010.286166381545	88.880166375819	573.910278563162	1113.534252138248	44.404674894244	583.639076817237	
37	6.755428571429	950.718186517193	975.787917063979	585.395626956673	930.674670213445	960.248383296767	344.897302340475	983.977853419702	1440.468648512873	495.084050680286	884.448765113598	1491.991659644912	667.998468406694	847.834856350887	1554.884342747106	486.196537205875	912.501346905053	1510.418334261980	301.855228874147	819.809175020038	1202.869992045918	160.926449833702	905.404349576425	928.814126809087	138.131391159880	818.619032479600	1162.174185302729	791.928559854464	1037.661953670732	985.706463200487	720.002380377789	938.573133541686	734.650516168979	324.091376635254	857.308201175822	670.909272553495	282.912351937124	929.840342705614	604.161438760185	332.856551621616	905.766407086247	464.455602935628	323.749850090719	815.169065827473	387.473864282560	352.660053474251	714.626675294384	363.407086836850	284.919053171724	726.886615556570	297.650881106603	368.919732302402	496.482014753322	153.687299141731	382.380381949529	560.042282980746	88.812822703751	321.597177347164	675.038160797575	99.131118401212	352.918870712503	746.177458420809	41.983174309022	359.443861904293	978.607987454989	745.908992699438	606.266518131568	896.106620042308	660.929921499096	651.731223839971	983.965646963636	617.174817100086	581.178254127935	988.962992739385	518.133177782572	607.426504832301	952.670762594916	418.484339470200	563.039289316754	878.240297794711	345.645013127786	637.728548068724	938.537153752306	279.262580007917	555.767202332078	823.166705230272	53.017543344322	506.780205634147	894.712028166990	25.052170771899	587.312737673717	1002.253954991446	88.610900645221	573.433260330034	1105.477452061195	44.187202063292	583.506839736513	
38	6.773357142857	951.526693614913	974.996709081829	587.413628785470	929.322916275662	959.975177623560	347.739092210267	985.844950873381	1439.702952273330	498.562719336826	888.094774993726	1491.150456158802	672.533677147474	849.647820733471	1554.485836750236	491.253585437924	912.453575623481	1510.408308118584	306.159479944113	816.062869542611	1204.301192235764	164.993698007977	903.178275621909	930.634365383361	141.841514888415	822.196307912251	1161.760653247064	797.442626766247	1041.371160908607	985.709492544303	724.932170096333	944.533887291435	735.779011186874	322.783479903914	866.206326532240	670.176216408830	281.169296769374	942.294934051590	605.443507772959	329.522057266223	922.899774141330	463.810384010996	319.182589588044	829.447647603426	387.450874009238	348.998687544774	727.666163091602	367.159716748793	281.970255414298	737.847236460589	301.483008248026	366.201987155125	502.146469391100	172.176575259635	381.239967590126	559.766636733715	101.745018813579	320.909962348133	675.300605079528	102.899373978871	352.003267056885	739.820916589993	41.037080993725	359.302834139548	975.443776049821	744.512845913698	605.938791867880	891.983588301999	660.786575943371	652.876021635647	977.212773355055	615.557355574833	580.237757144922	980.860633084162	517.026199050945	606.131841566383	943.823739318353	418.352199694368	562.565292202704	870.805291488281	345.441179309766	638.236472510758	930.059715805806	279.242355589767	555.379781308457	815.101832497729	52.821500574778	506.607375260857	886.574361288118	24.988799502263	587.281252267926	994.202143807218	88.380412459663	572.976066878385	1097.417741397295	44.015465770439	583.365116242545	
39	6.791285714286	952.029721871310	973.929237636669	589.187589103976	927.706024039484	959.255236775817	350.467084140354	987.526480575424	1438.506135061656	501.628360449504	891.734862538999	1489.749918497718	676.711987182165	851.263834932573	1553.627196455545	496.017620261099	912.071057303316	1510.096184857961	310.168998328906	812.109467910759	1205.035801979601	169.404994665579	901.524387245593	932.063313423984	145.427354511372	826.421608107930	1160.920173753048	803.175337112216	1045.010002852358	984.508067606639	729.913827571625	950.888741656098	737.293522883160	321.271272259789	875.782570985159	669.608519722235	279.311787631455	955.589948345228	607.397407097812	326.192199051889	941.274207712413	464.159118725856	315.093753063051	845.085734049057	388.151695178544	345.547275459876	742.532291293222	371.502126407348	278.864197150761	750.344507071424	306.231538006309	363.617784928038	510.224817073206	192.250780340000	379.549074374970	561.409873678403	116.498700612847	319.749036735878	676.851385811373	108.116298423585	351.049815288910	734.213150925612	39.945008362449	359.030610434180	971.813089955253	742.933444639349	605.735032196515	887.230178320208	660.663669133468	654.160076628216	969.685463056691	613.890238899119	579.455780111590	971.931545889292	515.959711433291	604.987240006951	934.183768787604	418.381059511110	562.247223856094	862.810122301140	345.315495943569	638.929604311142	921.145170325797	279.395718004376	555.149137866306	807.020430977710	52.671789517933	506.495071942087	878.416736501057	24.928066690154	587.296504476043	986.111233449746	88.199665107261	572.598836046350	1089.342530304008	43.900941482057	583.235715132469	
40	6.809214285714	952.182686306901	972.640572075001	590.813552896262	925.889979091766	958.210487564644	353.101698416820	989.016296025518	1436.987534693108	504.204957241994	895.329817323016	1487.901889758599	680.436705845634	852.694863966484	1552.405359696021	500.386981443967	911.399304244731	1509.575959642006	313.811143934037	808.187107696841	1205.096146853247	174.057501596029	900.320933659627	933.030889545806	148.831915453746	831.295659581312	1159.759707141468	809.011410829803	1048.576864050428	982.199238436070	734.880032818836	957.380451301891	739.449025725556	319.791608569814	885.695688563760	669.497516194351	277.593970008437	969.241549360446	610.289871778366	323.166463684492	960.207662832361	465.699728904770	311.752334877428	861.527440089953	389.789375832363	342.543425824707	758.681960657527	376.473706631459	275.813453392355	763.913284819037	311.871526869336	361.280837483252	520.415605739120	212.998924283059	377.370637451432	565.147487536333	132.467150184192	318.115576709273	679.903855786735	114.727559921287	350.093506006234	729.872571570382	38.926493154056	358.595887198034	967.732873555672	741.213412175022	605.935895538793	881.856382638215	660.540371708828	655.664386127618	961.611283520606	612.228889264472	579.119718022334	962.438225997628	514.929920690360	604.265567368515	924.005077446521	418.536057110578	562.232951875856	854.320256372627	345.276290994329	639.841071897802	911.938724391527	279.688758948005	555.172984447946	798.911451823065	52.578466830007	506.460435719883	870.232406430309	24.866888685801	587.358127602025	977.968657670014	88.069995444439	572.335507974896	1081.241614574139	43.844239644963	583.129371640022	
41	6.827142857143	951.973406383136	971.229941827454	592.432979535655	923.975929547478	957.009202608546	355.667873147691	990.330247292326	1435.297595366401	506.246136178986	898.861872507532	1485.780944128537	683.633897149312	853.977261647096	1550.963762516310	504.273368325897	910.490975512854	1508.953347442269	317.023633324776	804.561705566852	1204.558681697619	178.787675122023	899.505395428348	933.514682309900	152.042767374653	836.729689757279	1158.442328307045	814.795150256827	1052.041293594340	978.991388292463	739.770424369330	963.731607453831	742.423576188730	318.654025171660	895.595303213892	670.087270425565	276.272848597005	982.737175175570	614.290399222038	320.759788946966	979.021976558583	468.519046659894	309.333150473600	878.212711311470	392.462601771024	340.176068933239	775.497547283157	382.008011698522	273.042342885372	778.079631325888	318.226886792289	359.289807037870	532.234134998794	233.176374883494	374.873838900353	571.095316271027	148.698367780118	316.092351325634	684.735675001060	122.432505236372	349.170184599395	727.569757699494	38.311429823669	357.965334051956	963.280718936683	739.431296282552	606.652723399956	876.009803976600	660.400480037546	657.403938121297	953.307171131471	610.632457019875	579.366531066859	952.751740654381	513.935977409575	604.105670425046	913.641865685596	418.765179826679	562.585797856854	845.509795296623	345.316896822484	640.958755644729	902.632115837024	280.061972093806	555.486572770939	790.767512085068	52.546446934808	506.509302315623	862.017546245882	24.804919209527	587.458469530037	969.775011341271	87.985177878593	572.193550309499	1073.110769976951	43.838315074389	583.048842872164	
